<?xml version="1.0" encoding="UTF-8"?> <!-- Generator: Adobe Illustrator 24.0.3, SVG Export Plug-In . SVG Version: 6.00 Build 0) --> <svg xmlns="http://www.w3.org/2000/svg" xmlns:xlink="http://www.w3.org/1999/xlink" id="Layer_1" x="0px" y="0px" viewBox="0 0 115 132" style="enable-background:new 0 0 115 132;" xml:space="preserve"> <style type="text/css"> .st0{fill:none;stroke:url(#Polygon_1_);stroke-width:2;} .st1{fill:url(#SVGID_1_);} </style> <g id="Page-1"> <g id="_x30_0_x5F_home-desktop" transform="translate(-1094.000000, -549.000000)"> <linearGradient id="Polygon_1_" gradientUnits="userSpaceOnUse" x1="734.2784" y1="910.9933" x2="735.2055" y2="910.9933" gradientTransform="matrix(111.9689 0 0 -129.2906 -81116.5312 118397.6641)"> <stop offset="0" style="stop-color:#C678FF"></stop> <stop offset="1" style="stop-color:#FE4345"></stop> </linearGradient> <path id="Polygon" class="st0" d="M1151.7,550.2l-56,32.3v64.6l56,32.3l56-32.3v-64.6L1151.7,550.2z"></path> </g> </g> <linearGradient id="SVGID_1_" gradientUnits="userSpaceOnUse" x1="25.8028" y1="66.3435" x2="88.9307" y2="66.3435"> <stop offset="0" style="stop-color:#9C7CB6"></stop> <stop offset="1" style="stop-color:#E8464A"></stop> </linearGradient> <path class="st1" d="M87.3,85.7c-1.2-2.3-3-4.8-5.2-7.3L82,78.2c-1.1-1.2-2.3-2.7-4.1-3.8c-2.2-1.2-5.6-1.9-8.3-0.2l-4.1,2.8 c-0.3,0.3-0.5,0.2-0.6,0.2s-0.6-0.2-1.2-0.8c-3.4-3.3-6.6-6.7-9.5-10.5c-0.2-0.2-0.5-0.5-0.8-0.9c-0.8-0.9-2-2.5-3.1-4.1 s-1.4-2.3-1.7-2.8l0.8-0.8l3.4-3.6c2.3-2.3,2.2-5.8,1.4-8.1c-0.6-1.9-1.7-3.4-2.8-4.7l-0.2-0.3c-2-2.7-4.2-4.8-6.1-6.6 c-1.4-1.2-3.8-2.8-6.6-3.1c-1.9-0.2-3.6,0.3-5,1.4c-0.8,0.6-1.6,1.2-2.2,2c-2.2,2.5-4.1,5.6-4.8,8.8c-0.6,2.3-0.8,5-0.6,7.7 c0.6,6.6,3.4,12,6.4,16.9c3.6,6.1,7.3,11.2,11.2,15.8C51.8,93,59.5,98.6,67,100.8c2.2,0.6,4.2,0.9,6.4,0.9h1.2 c3.3-0.2,6.7-1.2,9.5-3c0.9-0.5,1.7-1.1,2.3-1.7c1.4-1.2,2.2-2.8,2.3-4.7C89.3,89.9,88,87.4,87.3,85.7L87.3,85.7z M83.2,93.6 c-0.5,0.5-1.1,0.9-1.7,1.2c-2.2,1.2-4.8,2.2-7.2,2.3c-1.9,0.2-3.9-0.2-5.9-0.8c-6.6-1.9-13.4-7-21.1-15.8c-3.8-4.2-7.2-9.2-10.8-15 c-2.7-4.4-5.2-9.2-5.6-14.8c-0.2-2,0-4.1,0.5-5.9c0.6-2.3,1.9-4.8,3.6-6.7c0.5-0.5,1.1-1.1,1.6-1.4s0.8-0.5,1.4-0.5H38 c1.1,0.2,2.3,0.8,3.8,1.9c1.7,1.4,3.6,3.4,5.5,5.8l0.2,0.3c0.8,1.1,1.7,2,2,3.1s0.3,2.5-0.2,3l-3.4,3.6l-1.2,1.2 c-0.6,0.6-1.7,2-0.9,4.4c0.3,0.9,0.8,2,1.7,3.3c1.4,2,3.1,4.2,4.2,5.5c0.3,0.3,0.5,0.6,0.6,0.8c3.1,3.9,6.4,7.7,10,10.9 c1.7,1.7,3.4,2.2,4.8,2.2c1.4,0,2.5-0.5,3.3-1.1l4.1-2.8c0.6-0.5,1.9-0.2,3,0.3c0.9,0.5,1.7,1.6,2.7,2.5l0.2,0.3 c1.9,2.3,3.4,4.5,4.5,6.4c0.9,1.7,1.2,3,1.2,4.1C84,92.7,83.7,93.2,83.2,93.6L83.2,93.6z"></path> </svg> 