<?xml version="1.0" encoding="UTF-8"?> <!-- Generator: Adobe Illustrator 24.0.3, SVG Export Plug-In . SVG Version: 6.00 Build 0) --> <svg xmlns="http://www.w3.org/2000/svg" xmlns:xlink="http://www.w3.org/1999/xlink" id="Layer_1" x="0px" y="0px" viewBox="0 0 115 132" style="enable-background:new 0 0 115 132;" xml:space="preserve"> <style type="text/css"> .st0{fill:url(#SVGID_1_);} .st1{fill:none;stroke:url(#Polygon_2_);stroke-width:2;} .st2{fill:url(#SVGID_2_);} </style> <g> <linearGradient id="SVGID_1_" gradientUnits="userSpaceOnUse" x1="33.1963" y1="66.3435" x2="81.5371" y2="66.3435"> <stop offset="0" style="stop-color:#9C7CB6"></stop> <stop offset="1" style="stop-color:#E8464A"></stop> </linearGradient> <path class="st0" d="M80.3,81.1c-1-1.8-2.3-3.7-3.9-5.6l-0.1-0.1c-0.8-1-1.8-2-3.1-2.9c-1.7-1-4.3-1.4-6.3-0.1l-3.1,2.2 c-0.2,0.2-0.4,0.1-0.5,0.1c-0.1,0-0.5-0.1-1-0.6c-2.6-2.5-5-5.1-7.3-8c-0.1-0.1-0.4-0.4-0.6-0.7c-0.6-0.7-1.6-1.9-2.4-3.1 c-0.8-1.2-1.1-1.8-1.3-2.2l0.6-0.6l2.6-2.8c1.8-1.8,1.7-4.4,1.1-6.2c-0.5-1.4-1.3-2.6-2.2-3.6l-0.1-0.2c-1.6-2-3.2-3.7-4.7-5 c-1.1-1-2.9-2.2-5-2.4c-1.4-0.1-2.8,0.2-3.8,1.1c-0.6,0.5-1.2,1-1.7,1.6c-1.7,1.9-3.1,4.3-3.7,6.7c-0.5,1.8-0.6,3.8-0.5,5.9 c0.5,5,2.6,9.2,4.9,12.9c2.8,4.7,5.6,8.6,8.6,12.1c6.3,7.3,12.2,11.6,17.9,13.3c1.7,0.5,3.2,0.7,4.9,0.7h1c2.5-0.1,5.1-1,7.3-2.3 c0.7-0.4,1.3-0.8,1.8-1.3c1.1-1,1.7-2.2,1.8-3.6C81.8,84.4,80.9,82.4,80.3,81.1L80.3,81.1z M77.2,87.2c-0.4,0.4-0.8,0.7-1.3,1 c-1.7,1-3.7,1.7-5.5,1.8c-1.4,0.1-3-0.1-4.5-0.6c-5-1.4-10.3-5.4-16.2-12.1c-2.9-3.2-5.5-7.1-8.3-11.5c-2-3.4-3.9-7.1-4.3-11.4 c-0.1-1.6,0-3.1,0.4-4.5c0.5-1.8,1.4-3.7,2.8-5.1c0.4-0.4,0.8-0.8,1.2-1.1c0.4-0.2,0.6-0.4,1.1-0.4h0.1c0.8,0.1,1.8,0.6,2.9,1.4 c1.3,1.1,2.8,2.6,4.2,4.4l0.1,0.2c0.6,0.8,1.3,1.6,1.6,2.4c0.2,0.8,0.2,1.9-0.1,2.3l-2.6,2.8l-1,1c-0.5,0.5-1.3,1.6-0.7,3.4 c0.2,0.7,0.6,1.6,1.3,2.5c1.1,1.6,2.4,3.2,3.2,4.2c0.2,0.2,0.4,0.5,0.5,0.6c2.4,3,4.9,5.9,7.7,8.4c1.3,1.3,2.6,1.7,3.7,1.7 c1.1,0,1.9-0.4,2.5-0.8l3.1-2.2c0.5-0.4,1.4-0.1,2.3,0.2c0.7,0.4,1.3,1.2,2,1.9l0.1,0.2c1.4,1.8,2.6,3.5,3.5,4.9 c0.7,1.3,1,2.3,1,3.1C77.7,86.5,77.5,86.9,77.2,87.2L77.2,87.2z"></path> </g> </svg> 